<?xml version="1.0" encoding="utf-8"?>
<svg version="1.1" xmlns:xlink="http://www.w3.org/1999/xlink" width="17px" height="28px" xmlns="http://www.w3.org/2000/svg">
  <g transform="matrix(1 0 0 1 -602 -4 )">
    <path d="M 7.7100000000014 27.0060000000001  L 16.0510000000014 19.0070000000001  L 10.3240000000014 13.5039999999999  L 15.9700000000014 7.97800000000007  L 7.54600000000141 0  L 7.34600000000137 0  L 7.34600000000137 11.096  L 1.62800000000141 5.24499999999989  L 0 6.90499999999997  L 6.87900000000138 13.5039999999999  L 0 20.1030000000001  L 1.62800000000141 21.7620000000002  L 7.34600000000137 15.9100000000001  L 7.34600000000137 27.0060000000001  L 7.7100000000014 27.0060000000001  Z M 9.41000000000145 11.7129999999997  L 9.41000000000145 4.63499999999976  L 13.2150000000014 7.97799999999961  L 9.41000000000145 11.7129999999997  Z M 13.0480000000015 19.0299999999997  L 9.41000000000145 22.5419999999997  L 9.41000000000145 15.1629999999998  L 13.0480000000015 19.0299999999997  Z " fill-rule="nonzero" fill="#000000" stroke="none" transform="matrix(1 0 0 1 602 4 )" />
  </g>
</svg>