<?xml version="1.0" encoding="utf-8"?>
<svg version="1.1" xmlns:xlink="http://www.w3.org/1999/xlink" width="20px" height="13px" xmlns="http://www.w3.org/2000/svg">
  <defs>
    <linearGradient gradientUnits="userSpaceOnUse" x1="19" y1="1.91117663497739" x2="0" y2="10.9812304156659" id="LinearGradient167">
      <stop id="Stop168" stop-color="#5696ff" offset="0" />
      <stop id="Stop169" stop-color="#38b3eb" offset="0.17" />
      <stop id="Stop170" stop-color="#04e5d9" offset="1" />
    </linearGradient>
  </defs>
  <g transform="matrix(1 0 0 1 -282 -746 )">
    <path d="M 16.3085289344282 0.451855365417594  L 10.7138773829421 5.87455759477506  C 10.7138773829421 5.87455759477506  7.86408448998377 3.96686977779399  7.86408448998377 3.96686977779399  C 7.23033694256716 3.56492866785858  6.38534021267834 3.66519502316926  5.85882808904392 4.16740248841537  C 5.85882808904392 4.16740248841537  0.474965482159727 9.48983836246214  0.474965482159727 9.48983836246214  C -0.158321827386576 10.0918743386726  -0.158321827386576 10.9960229138541  0.474965482159727 11.5984967344109  C 0.792069374803188 11.899295800343  1.10825279170603 12  1.53029091878013 12  C 1.95278928372454 12  2.37482741079863 11.7990294450323  2.69147106557178 11.4973546904076  L 7.12494247026621 7.17977159119933  C 7.12494247026621 7.17977159119933  9.97473536322457 9.08789725252673  9.97473536322457 9.08789725252673  C 10.6080226727709 9.48983836246214  11.4530194026597 9.38957200715146  11.9804520020347 8.88736454190535  C 11.9804520020347 8.88736454190535  18.5250345178403 2.56051373736637  18.5250345178403 2.56051373736637  C 19.1583218273866 1.95760207246324  19.1583218273866 1.05432918597439  18.5250345178403 0.451855365417594  C 18.2083908630671 0.150618455139198  17.8121260567304 0  17.4163214882639 0  C 17.0205169197975 0  16.6247123513311 0.150618455139198  16.3085289344282 0.451855365417594  Z " fill-rule="nonzero" fill="url(#LinearGradient167)" stroke="none" transform="matrix(1 0 0 1 282 746 )" />
  </g>
</svg>