<?xml version="1.0" encoding="utf-8"?>
<svg version="1.1" xmlns:xlink="http://www.w3.org/1999/xlink" width="16px" height="16px" xmlns="http://www.w3.org/2000/svg">
  <g transform="matrix(1 0 0 1 -498 -806 )">
    <path d="M 11.2322987012988 15.3659774647888  C 14.1151038961038 14.1571661971832  15.9948181818181 11.309723943662  15.9948181818181 8.15124507042265  C 15.9904155844156 3.84030985915501  12.5390129870129 0.346619718309853  8.27994805194794 0.342163380281704  C 5.15955844155837 0.342163380281704  2.34645454545444 2.24482253521126  1.15233766233769 5.16281690140852  C -0.0417402597402088 8.0810084507043  0.618298701298727 11.4397464788733  2.82462337662332 13.6731211267606  C 5.03110389610379 15.9065352112677  8.34949350649345 16.5746704225353  11.2322987012988 15.3659774647888  Z M 8.875 8.25366197183109  L 8.875 9.45849014084513  C 8.875 9.45849014084513  10.6326493506492 9.45647887323958  10.6326493506492 9.45647887323958  C 10.9131688311688 9.44973521126769  11.1624415584415 9.63674366197188  11.2377922077922 9.91031549295781  C 11.2831428571428 10.0905802816902  11.2435584415584 10.2818873239438  11.1306493506493 10.4288676056339  C 11.0178571428571 10.5756507042255  10.8442077922077 10.6614647887325  10.6605064935065 10.6613070422536  C 10.6605064935065 10.6613070422536  8.875 10.6613070422536  8.875 10.6613070422536  C 8.875 10.6613070422536  8.875 11.637205633803  8.875 11.637205633803  C 8.88170129870127 11.9211492957747  8.69710389610395 12.1733070422537  8.42679220779223 12.2495774647889  C 8.24858441558445 12.2954816901409  8.05954545454551 12.2554140845072  7.91453246753235 12.1412845070423  C 7.76948051948057 12.026957746479  7.68470129870138 11.8513464788733  7.68485714285703 11.6652450704227  C 7.68485714285703 11.6652450704227  7.68485714285703 10.6613070422536  7.68485714285703 10.6613070422536  C 7.68485714285703 10.6613070422536  5.92720779220781 10.6613070422536  5.92720779220781 10.6613070422536  C 5.64672727272728 10.6679323943663  5.39741558441551 10.481081690141  5.32210389610395 10.2074704225353  C 5.27675324675329 10.0270873239438  5.31629870129882 9.83578028169018  5.42924675324684 9.68895774647899  C 5.54199999999992 9.54213521126769  5.7156493506493 9.45636056338037  5.89935064935071 9.45647887323958  C 5.89935064935071 9.45647887323958  7.68485714285703 9.45647887323958  7.68485714285703 9.45647887323958  L 7.68485714285703 8.25169014084508  C 7.68485714285703 8.25169014084508  5.92720779220781 8.25169014084508  5.92720779220781 8.25169014084508  C 5.64672727272728 8.25847323943674  5.39741558441551 8.07142535211278  5.32210389610395 7.79785352112685  C 5.27675324675329 7.6176281690141  5.31629870129882 7.42612394366199  5.42924675324684 7.27930140845081  C 5.54199999999992 7.13251830985917  5.7156493506493 7.04670422535219  5.89935064935071 7.04686197183105  C 5.89935064935071 7.04686197183105  7.43877922077922 7.04686197183105  7.43877922077922 7.04686197183105  C 7.43877922077922 7.04686197183105  5.5025714285714 5.08504788732398  5.5025714285714 5.08504788732398  C 5.29896103896112 4.88908732394373  5.25240259740258 4.57836619718319  5.38966233766246 4.33003380281696  C 5.4832467532467 4.16952676056337  5.64520779220788 4.06182535211269  5.82797402597407 4.03875492957752  C 6.01089610389613 4.01548732394372  6.19397402597406 4.07941408450711  6.32394805194804 4.21156619718317  C 6.32394805194804 4.21156619718317  8.28388311688309 6.19542535211269  8.28388311688309 6.19542535211269  C 8.28388311688309 6.19542535211269  10.2220389610388 4.23376901408449  10.2220389610388 4.23376901408449  C 10.4156363636364 4.02747605633806  10.7227662337662 3.98034929577466  10.967948051948 4.11932394366204  C 11.1266753246753 4.21405070422543  11.232922077922 4.37794929577467  11.2557142857142 4.56310422535216  C 11.2787012987012 4.74814084507045  11.2155454545455 4.93345352112681  11.0849870129871 5.06501408450708  C 11.0849870129871 5.06501408450708  9.12505194805203 7.04887323943672  9.12505194805203 7.04887323943672  C 9.12505194805203 7.04887323943672  10.6605064935065 7.04887323943672  10.6605064935065 7.04887323943672  C 10.8442077922077 7.04871549295785  11.0178571428571 7.13452957746483  11.1306493506493 7.28131267605636  C 11.2435584415584 7.42813521126766  11.2831428571428 7.61960000000011  11.2377922077922 7.79986478873241  C 11.1624415584415 8.07343661971834  10.9131688311688 8.26044507042263  10.6326493506492 8.25366197183109  C 10.6326493506492 8.25366197183109  8.875 8.25366197183109  8.875 8.25366197183109  Z " fill-rule="nonzero" fill="#ffffff" stroke="none" transform="matrix(1 0 0 1 498 806 )" />
  </g>
</svg>