<?xml version="1.0" encoding="utf-8"?>
<svg version="1.1" xmlns:xlink="http://www.w3.org/1999/xlink" width="30px" height="33px" xmlns="http://www.w3.org/2000/svg">
  <g transform="matrix(1 0 0 1 -475 -696 )">
    <path d="M 4.6023604639298 0  C 4.6023604639298 0  24.3986258970783 0  24.3986258970783 0  C 26.9552736301486 0  29 2.0889490415788  29 4.69963173963677  C 29 4.69963173963677  29 27.3003682603632  29 27.3003682603632  C 29 29.9110509584212  26.9552736301486 32  24.3986258970783 32  C 24.3986258970783 32  4.6023604639298 32  4.6023604639298 32  C 2.04571273085949 32  0 29.9110509584212  0 27.3003682603632  C 0 27.3003682603632  0 4.69963173963677  0 4.69963173963677  C 0 2.0889490415788  2.04571273085949 0  4.6023604639298 0  Z " fill-rule="nonzero" fill="#0091ff" stroke="none" transform="matrix(1 0 0 1 475 696 )" />
  </g>
</svg>