<?xml version="1.0" encoding="utf-8"?>
<svg version="1.1" xmlns:xlink="http://www.w3.org/1999/xlink" width="111px" height="110px" xmlns="http://www.w3.org/2000/svg">
  <defs>
    <linearGradient gradientUnits="userSpaceOnUse" x1="55.5" y1="17.2834321270392" x2="55.5" y2="100.217273639999" id="LinearGradient232">
      <stop id="Stop233" stop-color="#f3f7ff" offset="0" />
      <stop id="Stop234" stop-color="#e7effd" offset="0.26" />
      <stop id="Stop235" stop-color="#d3e3ff" offset="1" />
    </linearGradient>
  </defs>
  <g transform="matrix(1 0 0 1 -248 -710 )">
    <path d="M 111 0  L 0.00272964699059272 0  C 0.00272964699059272 0  0.00272964699059272 74.3053983278163  0.00272964699059272 74.3053983278163  C 0.00272964699059272 74.3053983278163  -0.217810588391818 79.0836387538645  3.30579225806089 80.9935677596411  C 3.30579225806089 80.9935677596411  51.0974913803877 108.710096560006  51.0974913803877 108.710096560006  C 51.0974913803877 108.710096560006  58.144697073293 112.293435088381  64.0904618192028 107.515194662333  C 64.0904618192028 107.515194662333  106.384384520614 80.6812970746141  106.384384520614 80.6812970746141  C 106.384384520614 80.6812970746141  109.411957153765 78.7253275883334  110.190987401538 76.6152916646516  C 110.970017649311 74.5052557409696  111 70.5487502010676  111 70.5487502010676  L 111 0  Z " fill-rule="nonzero" fill="url(#LinearGradient232)" stroke="none" transform="matrix(1 0 0 1 248 710 )" />
  </g>
</svg>