<?xml version="1.0" encoding="utf-8"?>
<svg version="1.1" xmlns:xlink="http://www.w3.org/1999/xlink" width="51px" height="52px" xmlns="http://www.w3.org/2000/svg">
  <g transform="matrix(1 0 0 1 -279 -727 )">
    <path d="M 23.3750172962502 0  C 13.416701259167 3.50302515125756  1.36294451362945 6.07780389019451  1.36294451362945 6.07780389019451  C 0.628718693787187 6.28521426071303  0 7.00605030251513  0 7.72688634431722  C 0 7.72688634431722  0 27.4053702685134  0 27.4053702685134  C 0 27.6119305965298  0.314791753147918 31.8357917895895  3.24996540749965 36.8850442522126  C 4.92683686176837 39.8720936046802  8.49072920990729 42.242012100605  11.3212605507126 44.5090754537727  C 14.7796457727965 47.2912645632282  19.7064826345648 49.4546227311366  24.5278123702781 51  C 24.5278123702781 51  31.8657465061575 49.2489124456223  37.5259443752594 45.3327666383319  C 50 36.8850442522126  50 27.5082254112706  50 27.4053702685134  C 50 27.4053702685134  50 6.28521426071303  50 6.28521426071303  C 50 5.56352817640882  49.3704164937042 4.8418420921046  48.6370554863706 4.73898694934747  C 48.6370554863706 4.73898694934747  37.0018679950187 3.29646482324116  25.6814722568147 0.102855142757134  C 25.2620381901204 -0.103705185259263  23.7944513629445 0.20571028551428  23.3750172962502 0  Z " fill-rule="nonzero" fill="#b8dcf7" stroke="none" transform="matrix(1 0 0 1 279 727 )" />
  </g>
</svg>