<?xml version="1.0" encoding="utf-8"?>
<svg version="1.1" xmlns:xlink="http://www.w3.org/1999/xlink" width="16px" height="6px" xmlns="http://www.w3.org/2000/svg">
  <g transform="matrix(1 0 0 1 -487 -783 )">
    <path d="M 12.5500373415034 5  C 12.5500373415034 5  2.45346455247831 5  2.45346455247831 5  C 1.11721241509045 5  0.00350189398174204 3.8635433715221  0.00350189398174204 2.5  C -0.0706786447779738 1.1364566284779  1.04303187633073 0  2.45346455247831 0  C 2.45346455247831 0  12.5500373415034 0  12.5500373415034 0  C 13.8862894788913 0  15 1.1364566284779  15 2.5  C 15 2.5  15 2.57569558101473  15 2.57569558101473  C 15 3.25797872340425  14.7022754052482 3.8635433715221  14.2571921726899 4.31771685761047  C 13.8121089401316 4.77189034369886  13.2176621903409 5  12.5500373415034 5  Z " fill-rule="nonzero" fill="#d5e4ff" stroke="none" transform="matrix(1 0 0 1 487 783 )" />
  </g>
</svg>