<?xml version="1.0" encoding="utf-8"?>
<svg version="1.1" xmlns:xlink="http://www.w3.org/1999/xlink" width="10px" height="9px" xmlns="http://www.w3.org/2000/svg">
  <g transform="matrix(1 0 0 1 -498 -719 )">
    <path d="M 8.44470000000024 3.81539999999995  L 6.53770000000031 2.10439999999994  L 4.2827000000002 4.10339999999997  L 3.46870000000013 4.84439999999995  L 2.71670000000017 5.52739999999994  L 2.1527000000001 6.03739999999993  C 2.1527000000001 6.03739999999993  1.85770000000025 6.30039999999997  1.85770000000025 6.30039999999997  C 1.70470000000023 6.43139999999994  1.58070000000021 6.5874  1.49070000000006 6.7604  C 1.44270000000029 6.86339999999996  1.40170000000012 6.9674  1.36570000000006 7.07439999999997  C 1.36570000000006 7.07439999999997  1.19570000000022 7.55039999999997  1.19570000000022 7.55039999999997  C 1.19570000000022 7.55039999999997  1.03370000000018 8.0444  1.03370000000018 8.0444  C 0.989700000000084 8.20839999999998  0.962700000000268 8.33240000000001  0.944700000000239 8.40639999999996  C 0.906700000000228 8.52239999999995  0.922700000000077 8.64739999999995  0.989700000000084 8.75139999999999  C 1.05270000000019 8.8184  1.16870000000017 8.8424  1.35670000000027 8.8184  C 1.49170000000026 8.79339999999991  1.62670000000026 8.76339999999993  1.75970000000007 8.72739999999999  C 1.95270000000028 8.69139999999993  2.14370000000008 8.64439999999991  2.33170000000018 8.5874  C 2.52870000000007 8.53839999999991  2.71670000000017 8.47239999999999  2.91370000000029 8.41539999999998  C 2.91370000000029 8.41539999999998  3.38770000000022 8.2174  3.38770000000022 8.2174  L 3.65670000000023 8.06939999999997  L 3.9077000000002 7.89639999999997  L 4.67670000000021 7.18939999999998  L 5.42870000000016 6.51439999999991  L 6.24270000000024 5.78239999999994  L 8.44470000000024 3.81539999999995  Z M 9.70669999999996 2.6884  C 9.85369999999989 2.57139999999993  9.93569999999977 2.3993999999999  9.92969999999991 2.21939999999995  C 9.91869999999994 2.08039999999994  9.88869999999997 1.94139999999993  9.84069999999997 1.80840000000001  C 9.74369999999976 1.60839999999996  9.6076999999998 1.42639999999994  9.43769999999995 1.27340000000004  C 9.30369999999994 1.12739999999997  9.13869999999997 1.00739999999996  8.9547 0.919399999999996  C 8.79169999999999 0.839399999999955  8.61169999999993 0.794399999999996  8.42669999999998 0.788400000000024  C 8.21169999999984 0.767399999999952  7.9976999999999 0.836400000000026  7.84469999999988 0.977399999999989  C 7.84469999999988 0.977399999999989  7.55870000000004 1.19939999999997  7.55870000000004 1.19939999999997  C 7.46169999999984 1.28739999999993  7.36069999999995 1.36939999999993  7.25469999999996 1.44639999999993  C 7.25469999999996 1.44639999999993  9.17869999999994 3.15739999999994  9.17869999999994 3.15739999999994  C 9.23669999999993 3.12139999999999  9.29069999999979 3.08039999999994  9.33969999999999 3.03439999999989  C 9.33969999999999 3.03439999999989  9.50069999999982 2.87739999999997  9.50069999999982 2.87739999999997  C 9.50069999999982 2.87739999999997  9.70669999999996 2.6884  9.70669999999996 2.6884  Z " fill-rule="nonzero" fill="#ffffff" stroke="none" transform="matrix(1 0 0 1 498 719 )" />
  </g>
</svg>