<?xml version="1.0" encoding="utf-8"?>
<svg version="1.1" xmlns:xlink="http://www.w3.org/1999/xlink" width="38px" height="30px" xmlns="http://www.w3.org/2000/svg">
  <g transform="matrix(1 0 0 1 -474 -790 )">
    <path d="M 24.1359836400818 29.989470967742  C 24.0093946830266 29.821935483871  23.8887116564417 29.6484774193549  23.773973415133 29.4730838709678  C 23.773973415133 29.4730838709678  23.7225296523518 29.3844774193549  23.7225296523518 29.3844774193549  C 23.6131145194274 29.2149677419355  23.508828220859 29.0427483870968  23.4100204498977 28.8680903225808  C 23.1891697341514 28.4725161290324  22.9961390593048 28.0464000000001  22.8322106339469 27.6243870967743  C 22.8322106339469 27.6243870967743  3.16546216768916 27.6243870967743  3.16546216768916 27.6243870967743  C 2.7305991820042 27.6190838709679  2.37939059304699 27.2691870967743  2.3741063394682 26.8359870967743  C 2.3741063394682 26.8359870967743  2.3741063394682 11.856541935484  2.3741063394682 12  L 35.6105848670759 12  C 35.6105848670759 11.856541935484  35.6105848670759 14.8858838709679  35.6105848670759 14.8858838709679  C 36.0341799591004 15.0492  36.4459631901841 15.2415483870968  36.8430204498979 15.461535483871  C 37.0190715746423 15.5599741935484  37.2091104294479 15.6585677419356  37.3792167689162 15.7728774193549  C 37.3792167689162 15.7728774193549  37.4662126789367 15.8280774193549  37.4662126789367 15.8280774193549  C 37.6422638036811 15.9443612903226  37.8163333333334 16.0625806451613  37.9845357873212 16.190670967742  C 37.9845357873212 16.190670967742  37.9845357873212 3.18437419354848  37.9845357873212 3.18437419354848  C 37.9845357873212 1.44259354838709  36.5673844580779 0.0307354838710125  34.8192290388549 0.0307354838710125  C 34.8192290388549 0.0307354838710125  3.16546216768916 0.0307354838710125  3.16546216768916 0.0307354838710125  C 2.32580981595083 0.0307354838710125  1.52081595092022 0.362941935483946  0.927036809815945 0.954348387096843  C 0.333451942740339 1.54587096774196  0 2.3478967741936  0 3.18437419354848  C 0 3.18437419354848  0 26.8359870967743  0 26.8359870967743  C 0 28.5776129032259  1.41715132924332 29.989470967742  3.16546216768916 29.989470967742  C 3.16546216768916 29.989470967742  24.1359836400818 29.989470967742  24.1359836400818 29.989470967742  Z M 35.6105848670754 10  L 2.3741063394682 10  C 2.3741063394682 9.49149677419359  2.3741063394682 3.18437419354848  2.3741063394682 3.18437419354848  C 2.37939059304699 2.75117419354842  2.73059918200397 2.4012387096775  3.16546216768916 2.39597419354845  C 3.16546216768916 2.39597419354845  34.8192290388545 2.39597419354845  34.8192290388545 2.39597419354845  C 35.253897750511 2.4012387096775  35.605106339468 2.75117419354842  35.6105848670754 3.18437419354848  C 35.6105848670754 3.18437419354848  35.6105848670754 9.49149677419359  35.6105848670754 10  Z " fill-rule="nonzero" fill="#e5ebfd" stroke="none" transform="matrix(1 0 0 1 474 790 )" />
  </g>
</svg>