<?xml version="1.0" encoding="utf-8"?>
<svg version="1.1" xmlns:xlink="http://www.w3.org/1999/xlink" width="54px" height="72px" xmlns="http://www.w3.org/2000/svg">
  <g transform="matrix(1 0 0 1 -275 -724 )">
    <path d="M 0.00104095564955742 3.57860548200241  L 0 2.22709945360687  C 0 2.22709945360687  0.22068259774803 -1.25149218821412  3.66312293148736 0.486239986468406  C 4.33037550298023 0.870896958548699  4.9976280744731 1.25451149981034  5.66383969031621 1.64021090270929  C 7.42617760535119 2.653453658433  9.18747456473642 3.66878127579398  10.9487715241217 4.68306646233633  C 13.4460241278835 6.12162099206752  15.9422357759957 7.56017552179869  18.4394883797576 8.99873005152987  C 21.3135669287308 10.6541101915394  24.1855635664045 12.3094903315489  27.0596421153776 13.9648704715584  C 27.0596421153776 13.9648704715584  35.7328845891352 18.9612413853276  35.7328845891352 18.9612413853276  C 38.2821849753848 20.4289839779809  40.8325263172843 21.8977690014528  43.3818267035339 23.3665540249247  C 45.2305639374985 24.4319183215807  47.0813830827627 25.4972826182367  48.9301203167273 26.5626469148927  C 49.4245742503609 26.847230528383  49.9200691396442 27.1338990035106  50.4145230732778 27.4184826170008  C 51.5252227515662 28.0574927088307  52.2996937549838 28.9320921656745  52.6931749905912 30.1965607486919  C 53.1824241459759 31.7685464232097  52.9398814795831 33.5740366011042  52.9398814795831 35.2179500021086  C 52.9409224352328 36.5720676355295  52.9409224352328 37.9261852689504  52.9409224352328 39.2803029023713  C 52.9419633908826 42.7609794058295  52.9419633908826 46.2406134784691  52.9430043465323 49.7212899819274  C 52.9430043465323 53.2311545483078  52.9440453021821 56.7420615455068  52.9440453021821 60.2529685427058  C 52.9450862578319 62.5973954538401  52.9450862578319 65.6231207973927  52.9450862578319 67.9675477085271  C 52.9450862578319 68.3167620327734  52.9908883064211 68.7014190048535  52.9450862578319 69.0485484674625  C 52.9450862578319 69.0485484674625  53.0810971321736 71.0000000000002  49.6001414393931 71  C 49.6001414393931 71  49.5088916579911 65.7424092336945  49.5088916579911 65.7424092336945  L 49.5088916579911 55.9685778780716  C 49.5088916579911 55.9685778780716  49.5088916579911 44.684264266231  49.5088916579911 44.684264266231  C 49.5088916579911 41.7602458199296  49.5099326136408 38.8341425119909  49.5099326136408 35.9101240656894  C 49.5099326136408 33.9878816361066  49.6993865418962 32.1292274864612  48.3555127980627 30.5843450132281  C 47.2843694344649 29.3532342164075  45.7729018310208 28.6047688886198  44.3853079498976 27.7979274349879  C 43.4088915504275 27.0650985694799  42.1961782184631 26.5272042670587  41.139608233962 25.9132125148764  C 40.0018437087799 25.2523113758549  38.8651201392475 24.5914102368335  37.7273556140655 23.9305090978121  C 35.5538402173773 22.668125376432  33.3803248206892 21.405741655052  31.2078503796508 20.143357933672  C 31.2078503796508 20.143357933672  22.4554952765119 15.0594228311365  22.4554952765119 15.0594228311365  C 19.5866215057875 13.3925759521218  16.7198296463626 11.7257290731072  13.8509558756382 10.0609670557299  C 11.4296930343084 8.65368545055813  9.00843019297858 7.2464038453863  6.58716735164878 5.8412071018518  C 5.01116049791991 4.92491041226214  3.4361945998408 4.00965615349115  1.85914679046218 3.09440189472015  C 1.47087033310362 2.86819440707402  0.389317413008123 3.80377053882989  0.00104095564955742 3.57860548200241  Z " fill-rule="nonzero" fill="#171c85" stroke="none" transform="matrix(1 0 0 1 275 724 )" />
  </g>
</svg>