<?xml version="1.0" encoding="utf-8"?>
<svg version="1.1" xmlns:xlink="http://www.w3.org/1999/xlink" width="13px" height="11px" xmlns="http://www.w3.org/2000/svg">
  <defs>
    <mask fill="white" id="clip192">
      <path d="M 12.4584694329264 8.20121364390729  C 12.7575089671775 8.20121364390729  13 7.93234943681591  13 7.60063670239447  C 13 7.2688442867975  12.7575817217628 7  12.4584694329264 7  C 12.4584694329264 7  0.544906089186043 7  0.544906089186043 7  C 0.504199898707725 7  0.464621404301624 7.00513943583246  0.426534378894416 7.01454181456438  C 0.324859845930177 7.03866529050629  0.231715788093084 7.09454171496304  0.158397354751742 7.17545794888201  C -0.0213610368913351 7.37334614872248  -0.0480801583446464 7.67581589166343  0.0780399152820337 7.9049590326706  C 0.110161064694353 7.96543704502369  0.151576612379358 8.01928159949989  0.200522259643549 8.06418194200455  C 0.200522259643549 8.06418194200455  2.70828187188499 10.8256326872104  2.70828187188499 10.8256326872104  C 2.91952481031888 11.0581224375965  3.26205339793626 11.0581224375965  3.47327814772382 10.8256326872104  C 3.68450289751138 10.5929636541787  3.68450289751138 10.2157928090228  3.47327814772382 9.98322337746094  C 3.47327814772382 9.98322337746094  1.85490696354668 8.20121364390729  1.85490696354668 8.20121364390729  C 1.85490696354668 8.20121364390729  12.4584694329264 8.20121364390729  12.4584694329264 8.20121364390729  Z M 0.540914399952726 2.79969495240789  C 0.242142448613549 2.79969495240789  0 3.06833588576387  0 3.39979771313824  C 0 3.73127944573889  0.242142448613549 4  0.540914399952726 4  C 0.540914399952726 4  12.4409221912086 4  12.4409221912086 4  C 12.4790385520423 3.9999203790951  12.5170640731218 3.9954815136432  12.5543265402666 3.98662368796568  C 12.6634069170281 3.96546443247098  12.7637666773927 3.90785870772788  12.8417616902902 3.82162926764931  C 13.0527461032366 3.58921584605309  13.0527461032366 3.21233029239534  12.8417616902902 2.98001639693007  C 12.8417616902902 2.98001639693007  10.2946876562401 0.174295137277568  10.2946876562401 0.174295137277568  C 10.0837032432937 -0.0580983790925984  9.74163706513525 -0.0580983790925984  9.53065265218891 0.174295137277568  C 9.31965007129179 0.406708558874016  9.31965007129179 0.783594112531773  9.53065265218891 1.01600753412822  C 9.53065265218891 1.01600753412822  11.1498712695869 2.79969495240789  11.1498712695869 2.79969495240789  C 11.1498712695869 2.79969495240789  0.540914399952726 2.79969495240789  0.540914399952726 2.79969495240789  Z " fill-rule="evenodd" />
    </mask>
  </defs>
  <g transform="matrix(1 0 0 1 -696 -84 )">
    <path d="M 12.4584694329264 8.20121364390729  C 12.7575089671775 8.20121364390729  13 7.93234943681591  13 7.60063670239447  C 13 7.2688442867975  12.7575817217628 7  12.4584694329264 7  C 12.4584694329264 7  0.544906089186043 7  0.544906089186043 7  C 0.504199898707725 7  0.464621404301624 7.00513943583246  0.426534378894416 7.01454181456438  C 0.324859845930177 7.03866529050629  0.231715788093084 7.09454171496304  0.158397354751742 7.17545794888201  C -0.0213610368913351 7.37334614872248  -0.0480801583446464 7.67581589166343  0.0780399152820337 7.9049590326706  C 0.110161064694353 7.96543704502369  0.151576612379358 8.01928159949989  0.200522259643549 8.06418194200455  C 0.200522259643549 8.06418194200455  2.70828187188499 10.8256326872104  2.70828187188499 10.8256326872104  C 2.91952481031888 11.0581224375965  3.26205339793626 11.0581224375965  3.47327814772382 10.8256326872104  C 3.68450289751138 10.5929636541787  3.68450289751138 10.2157928090228  3.47327814772382 9.98322337746094  C 3.47327814772382 9.98322337746094  1.85490696354668 8.20121364390729  1.85490696354668 8.20121364390729  C 1.85490696354668 8.20121364390729  12.4584694329264 8.20121364390729  12.4584694329264 8.20121364390729  Z M 0.540914399952726 2.79969495240789  C 0.242142448613549 2.79969495240789  0 3.06833588576387  0 3.39979771313824  C 0 3.73127944573889  0.242142448613549 4  0.540914399952726 4  C 0.540914399952726 4  12.4409221912086 4  12.4409221912086 4  C 12.4790385520423 3.9999203790951  12.5170640731218 3.9954815136432  12.5543265402666 3.98662368796568  C 12.6634069170281 3.96546443247098  12.7637666773927 3.90785870772788  12.8417616902902 3.82162926764931  C 13.0527461032366 3.58921584605309  13.0527461032366 3.21233029239534  12.8417616902902 2.98001639693007  C 12.8417616902902 2.98001639693007  10.2946876562401 0.174295137277568  10.2946876562401 0.174295137277568  C 10.0837032432937 -0.0580983790925984  9.74163706513525 -0.0580983790925984  9.53065265218891 0.174295137277568  C 9.31965007129179 0.406708558874016  9.31965007129179 0.783594112531773  9.53065265218891 1.01600753412822  C 9.53065265218891 1.01600753412822  11.1498712695869 2.79969495240789  11.1498712695869 2.79969495240789  C 11.1498712695869 2.79969495240789  0.540914399952726 2.79969495240789  0.540914399952726 2.79969495240789  Z " fill-rule="nonzero" fill="#ffffff" stroke="none" transform="matrix(1 0 0 1 696 84 )" />
    <path d="M 12.4584694329264 8.20121364390729  C 12.7575089671775 8.20121364390729  13 7.93234943681591  13 7.60063670239447  C 13 7.2688442867975  12.7575817217628 7  12.4584694329264 7  C 12.4584694329264 7  0.544906089186043 7  0.544906089186043 7  C 0.504199898707725 7  0.464621404301624 7.00513943583246  0.426534378894416 7.01454181456438  C 0.324859845930177 7.03866529050629  0.231715788093084 7.09454171496304  0.158397354751742 7.17545794888201  C -0.0213610368913351 7.37334614872248  -0.0480801583446464 7.67581589166343  0.0780399152820337 7.9049590326706  C 0.110161064694353 7.96543704502369  0.151576612379358 8.01928159949989  0.200522259643549 8.06418194200455  C 0.200522259643549 8.06418194200455  2.70828187188499 10.8256326872104  2.70828187188499 10.8256326872104  C 2.91952481031888 11.0581224375965  3.26205339793626 11.0581224375965  3.47327814772382 10.8256326872104  C 3.68450289751138 10.5929636541787  3.68450289751138 10.2157928090228  3.47327814772382 9.98322337746094  C 3.47327814772382 9.98322337746094  1.85490696354668 8.20121364390729  1.85490696354668 8.20121364390729  C 1.85490696354668 8.20121364390729  12.4584694329264 8.20121364390729  12.4584694329264 8.20121364390729  Z " stroke-width="1.2" stroke="#ffffff" fill="none" transform="matrix(1 0 0 1 696 84 )" mask="url(#clip192)" />
    <path d="M 0.540914399952726 2.79969495240789  C 0.242142448613549 2.79969495240789  0 3.06833588576387  0 3.39979771313824  C 0 3.73127944573889  0.242142448613549 4  0.540914399952726 4  C 0.540914399952726 4  12.4409221912086 4  12.4409221912086 4  C 12.4790385520423 3.9999203790951  12.5170640731218 3.9954815136432  12.5543265402666 3.98662368796568  C 12.6634069170281 3.96546443247098  12.7637666773927 3.90785870772788  12.8417616902902 3.82162926764931  C 13.0527461032366 3.58921584605309  13.0527461032366 3.21233029239534  12.8417616902902 2.98001639693007  C 12.8417616902902 2.98001639693007  10.2946876562401 0.174295137277568  10.2946876562401 0.174295137277568  C 10.0837032432937 -0.0580983790925984  9.74163706513525 -0.0580983790925984  9.53065265218891 0.174295137277568  C 9.31965007129179 0.406708558874016  9.31965007129179 0.783594112531773  9.53065265218891 1.01600753412822  C 9.53065265218891 1.01600753412822  11.1498712695869 2.79969495240789  11.1498712695869 2.79969495240789  C 11.1498712695869 2.79969495240789  0.540914399952726 2.79969495240789  0.540914399952726 2.79969495240789  Z " stroke-width="1.2" stroke="#ffffff" fill="none" transform="matrix(1 0 0 1 696 84 )" mask="url(#clip192)" />
  </g>
</svg>