<?xml version="1.0" encoding="utf-8"?>
<svg version="1.1" xmlns:xlink="http://www.w3.org/1999/xlink" width="53px" height="69px" xmlns="http://www.w3.org/2000/svg">
  <g transform="matrix(1 0 0 1 -272 -726 )">
    <path d="M 49.8515474176119 26.7843648702902  C 49.8515474176119 26.7843648702902  3.46803778585602 0.190544186797133  3.46803778585602 0.190544186797133  C 3.46803778585602 0.190544186797133  0.33856833265613 -0.968839535513373  0.104174871586501 2.43208895324444  C -0.130218589483126 5.83301744200225  0.104174871586501 2.89646857199168  0.104174871586501 2.89646857199168  C 0.104174871586501 2.89646857199168  0.691214350661786 37.0278487750606  0.691214350661786 37.0278487750606  C 0.691214350661786 37.0278487750606  0.377633909501067 39.1149481851605  1.94236863610101 40.6604452983395  C 1.94236863610101 40.6604452983395  50.9464393956714 68.994906889856  50.9464393956714 68.994906889856  C 50.9464393956714 68.994906889856  52.8226429106296 69.1493522462034  52.9799610444106 67.7572569396667  C 52.9799610444106 67.7572569396667  52.9799610444106 31.4229433092373  52.9799610444106 31.4229433092373  C 52.9799610444106 31.4229433092373  53.4487479665499 28.6397962458691  49.8515474176119 26.7843648702902  Z " fill-rule="nonzero" fill="#413de6" stroke="none" transform="matrix(1 0 0 1 272 726 )" />
  </g>
</svg>