<?xml version="1.0" encoding="utf-8"?>
<svg version="1.1" xmlns:xlink="http://www.w3.org/1999/xlink" width="25px" height="11px" xmlns="http://www.w3.org/2000/svg">
  <g transform="matrix(1 0 0 1 -355 -25 )">
    <path d="M 2.07219848065438 3.66666666666667  C 0.921183196339371 3.66666666666667  0 2.8519015842014  0 1.83318413628473  C 0 0.814765082465286  1.03609924032708 0  2.07219848065438 0  C 2.07219848065438 0  14.2742926099427 0  14.2742926099427 0  C 15.4253078942575 0  16.3461538461538 0.814765082465286  16.3461538461538 1.83318413628473  C 16.3461538461538 2.8519015842014  15.4253078942575 3.66666666666667  14.2742926099427 3.66666666666667  C 14.2742926099427 3.66666666666667  2.07219848065438 3.66666666666667  2.07219848065438 3.66666666666667  Z M 2.11284072114086 10.9999999999997  C 0.939250456472564 10.9999999999997  0 10.1852514936352  0 9.16655477115641  C 0 8.14808183969751  1.05642036057043 7.33333333333303  2.11284072114086 7.33333333333303  C 2.11284072114086 7.33333333333303  22.8874171729988 7.33333333333303  22.8874171729988 7.33333333333303  C 24.0610934023803 7.33333333333303  25 8.14808183969751  25 9.16655477115641  C 25 10.1852514936352  24.0610934023803 10.9999999999997  22.8874171729988 10.9999999999997  C 22.8874171729988 10.9999999999997  2.11284072114086 10.9999999999997  2.11284072114086 10.9999999999997  Z " fill-rule="nonzero" fill="#ffffff" stroke="none" transform="matrix(1 0 0 1 355 25 )" />
  </g>
</svg>