<?xml version="1.0" encoding="utf-8"?>
<svg version="1.1" xmlns:xlink="http://www.w3.org/1999/xlink" width="186px" height="183px" xmlns="http://www.w3.org/2000/svg">
  <g transform="matrix(1 0 0 1 -482 23 )">
    <path d="M 0 143.948804369704  L 0 130.574680027311  L 2.13272944397518 130.574680027311  L 2.13272944397518 128.398992031762  L 5.14556452004388 128.398992031762  L 5.14556452004388 126.306984343735  L 7.99171836619773 126.306984343735  L 7.99171836619773 123.963935733145  L 9.49831551762638 123.963935733145  L 9.49831551762638 126.223304036214  L 12.3441101369916 126.223304036214  L 12.3441101369916 128.315311724241  L 15.2739638248915 128.315311724241  L 15.2739638248915 130.49099971979  L 18 130.49099971979  L 18 155.01040725232  L 22 155.01040725232  L 22 123.963935733145  L 31.177292983427 123.963935733145  L 31.177292983427 127.645510121122  L 35 127.645510121122  L 35 139.863553305102  L 37 139.863553305102  L 37 155.01040725232  L 41.8078913387509 155.01040725232  L 41.8078913387509 145.051732371409  L 44 145.051732371409  L 44 117  L 64 117  L 64 144.67535055904  L 66 144.67535055904  L 66 155.01040725232  L 70 155.01040725232  L 70 117.81325355887  L 87 113.545198732344  L 87 161  L 99 161  L 99 128.60801322909  L 102.283002747599 124.340317545514  L 103.538859600579 125.153058043026  L 112 116.934071615472  L 112 157  L 122.623501199041 157  L 123.669569607472 84.5487151759603  L 122.298760182138 84.5487151759603  L 122.309177759007 83.094904511388  L 123.742851872348 83.094904511388  L 123.742851872348 82.3938574715547  L 122.309177759007 82.3938574715547  L 122.309177759007 80.9400468069824  L 123.742851872348 80.9400468069824  C 123.742851872348 80.9400468069824  123.742851872348 79.151155769375  123.742851872348 79.151155769375  C 123.742851872348 79.151155769375  118.145020825445 77.1848481141048  118.145020825445 71.9959507618961  C 118.145020825445 66.8077716955888  120.15381702735 64.7994443150828  122.665171506519 63.2931987797033  C 122.665171506519 63.2931987797033  122.665171506519 54.4227270395176  122.665171506519 54.4227270395176  L 121.995213545763 52.5817602740537  L 125.176166758901 52.5817602740537  L 126.180564859853 0  L 127.352362644298 0  L 128.053573335663 52.5397405488178  L 131.474849270381 52.5397405488178  L 130.219351644191 54.3598770231391  C 130.219351644191 54.3598770231391  130.219351644191 63.1466684558037  130.219351644191 63.1466684558037  C 130.219351644191 63.1466684558037  136.873309449606 65.7827777141932  134.802007786483 73.0004735950998  C 134.802007786483 73.0004735950998  134.174438586782 76.8917874663057  129.465693841688 79.0883057529965  C 129.465693841688 79.0883057529965  129.465693841688 80.9084422273177  129.465693841688 80.9084422273177  L 130.909785531898 80.9084422273177  L 130.909785531898 82.4304900525296  L 129.465693841688 82.3992446158157  L 129.465693841688 83.089517367127  L 131.003902950514 83.1053196569593  L 131.003902950514 84.5487151759603  L 129.449887862989 84.5332720290787  L 130.65868600666 160  L 140.870425926465 160  L 140.870425926465 151.035053930642  C 140.870425926465 151.035053930642  146.792638763483 151.035053930642  146.792638763483 151.035053930642  C 146.792638763483 151.035053930642  150.747725706075 140.130037374547  166.943824697327 139.452693769462  C 166.943824697327 139.452693769462  179.828930377965 140.416274306282  185 151.520974342985  C 185 151.520974342985  178.369391935844 178.027160678978  147.985271701667 182  C 147.985271701667 182  47.4157807357353 182  47.4157807357353 182  C 47.4157807357353 182  10.3392654297615 178.494405657883  0 143.948804369704  Z " fill-rule="nonzero" fill="#b8cbfb" stroke="none" transform="matrix(1 0 0 1 482 -23 )" />
  </g>
</svg>