<?xml version="1.0" encoding="utf-8"?>
<svg version="1.1" xmlns:xlink="http://www.w3.org/1999/xlink" width="48px" height="52px" xmlns="http://www.w3.org/2000/svg">
  <g transform="matrix(1 0 0 1 -278 -727 )">
    <path d="M 23.343516756915 0  C 13.7559088248207 3.52434852600865  1.35418191131275 5.28695039742429  1.35418191131275 5.28695039742429  C 0.625073174301186 5.39043163296106  0 6.1156554985411  0 6.94521581648053  C 0 6.94521581648053  0 26.7434852600865  0 26.7434852600865  C 0 26.9513029479827  0.312106688131131 31.2008753395714  3.12622566954486 36.2800080490995  C 4.79337406702766 39.2869503974243  8.23256622274258 41.9817386054935  10.941789843407 44.261746654593  C 14.2769464364115 47.0608713150216  18.3412117664276 49.3408793641211  23.1354456314942 50.8965187644632  C 23.1354456314942 50.8965187644632  23.5524476803747 51  23.5524476803747 51  C 23.5524476803747 51  23.9694497292551 50.8965187644632  23.9694497292551 50.8965187644632  C 28.6587882335724 49.3408793641211  32.7230535635885 47.0608713150216  36.058210156593 44.261746654593  C 38.7665739792185 41.9817386054935  42.2057661349334 39.2869503974243  43.8737743304551 36.2800080490995  C 46.6870335138299 31.2008753395714  47 26.8478217124459  47 26.7434852600865  C 47 26.7434852600865  47 6.94521581648053  47 6.94521581648053  C 47 6.21913673407787  46.3749268256988 5.49391286849784  45.6449582906483 5.28695039742429  C 45.4368871652276 5.28695039742429  34.7023086492024 3.52434852600865  23.343516756915 0  Z " fill-rule="nonzero" fill="#0091ff" stroke="none" transform="matrix(1 0 0 1 278 727 )" />
  </g>
</svg>