<?xml version="1.0" encoding="utf-8"?>
<svg version="1.1" xmlns:xlink="http://www.w3.org/1999/xlink" width="178px" height="265px" xmlns="http://www.w3.org/2000/svg">
  <defs>
    <linearGradient gradientUnits="userSpaceOnUse" x1="64.361494558458" y1="66.574481216666" x2="120.443506164173" y2="234.546965544181" id="LinearGradient189">
      <stop id="Stop190" stop-color="#e1e9ff" offset="0" />
      <stop id="Stop191" stop-color="#f0f5ff" offset="1" />
    </linearGradient>
  </defs>
  <g transform="matrix(1 0 0 1 -531 -303 )">
    <path d="M 60.0000000000003 168  C 60.0000000000003 168  59.9408129251211 167.994322790429  59.8270488624199 167.982825847587  C 57.9744811494982 168.076271745054  55.8744851627185 167.783320243597  53.665425976117 167.227516523655  C 50.7756060165969 166.824606393136  47.1618628387122 166.256393791294  43.4004424297376 165.505053574015  C 42.8040300692888 171.002394279646  42.4459208374937 176.680529096493  42.4459208374937 182.390264670249  C 42.4459208374937 216.523901713003  37.8779379868032 265  37.8779379868032 265  L 33.0000000000004 265  C 33.0000000000004 265  37.8779379868028 225.306706711143  37.8779379868032 212.979717396019  C 37.8779379868034 204.055238894087  37.9261888576033 181.584817711007  39.6513053546716 164.701266504005  C 34.8718136389915 163.600777603163  30.1594895530497 162.200680859642  26.6643994102018 160.46540106622  C 16.9682968836245 155.651376219483  9.55024456541694 147.917999394561  4.34566396947092 140.822587470041  C 2.06686708152164 137.715900521055  -3.51265620241928 127.39412671114  3.19815188639085 128.027959066742  C 5.94212482757642 128.287125892854  8.55354244262364 128.614533692364  11.0388080594186 129.002984351002  C 9.9333695403918 126.538304273415  3.27738664147636 110.90470514006  4.08800565384739 93.505975116751  C 4.97163473869476 74.5401926056359  14.8234901345379 61  14.8234901345379 61  C 14.8234901345379 61  33.2011697020436 70.8028786937025  48.142871097656 93.6121788365973  C 47.8962147948883 76.8007612335024  51.986082138647 50.4089534879848  74.6295362312062 25.7657379202967  C 87.4249896165229 11.8402513416268  96.1275982047975 6.2226576963651  105.10134176117 2.92003660036016  C 113.461228736283 -0.156665882922198  128 0.00840544220181982  128 0.00840544220181982  C 128 0.00840544220181982  122.214521476977 41.5084530394191  107.159171746291 72.1041327297761  C 122.235351310768 62.6569680290607  141.956370160301 54.8234325416887  167.731976966894 50.1678868064009  C 179.408836201585 48.0588325901598  179.408836201585 66.2362087236435  176.101337068138 81.3407190308088  C 172.050877160664 99.8381429008599  169.10506067953 109.870956446714  141.233676924742 134.791199305413  C 137.892763086621 137.778362947823  133.127773914889 141.770614656334  127.772926502664 145.558364107036  C 121.396449861289 151.357421791139  112.764132219712 157.361543622414  101.816909860752 161.24567112858  C 92.4846105655001 164.556816111288  76.2341456254424 166.50658738033  66.9786952135668 167.402544608849  C 66.8952608156808 167.909698499474  66.5688198289227 167.915995705156  66.0356544140449 167.492527506059  C 62.3566025505947 167.838462706185  60.0000000000003 168  60.0000000000003 168  Z M 63.1724062618783 127.998532795275  C 64.7235198297355 122.930721317403  66.8019497581972 117.593333749682  69.5749056770928 112.171918279065  C 65.1391023389992 114.302728708825  61.6300263545068 115.089976636178  59.1946166186991 115.33631562212  C 60.7006712940902 119.31337371352  62.0432552732239 123.531666958896  63.1724062618783 127.998532795275  Z " fill-rule="nonzero" fill="url(#LinearGradient189)" stroke="none" transform="matrix(1 0 0 1 531 303 )" />
  </g>
</svg>