<?xml version="1.0" encoding="utf-8"?>
<svg version="1.1" xmlns:xlink="http://www.w3.org/1999/xlink" width="45px" height="19px" xmlns="http://www.w3.org/2000/svg">
  <defs>
    <mask fill="white" id="clip231">
      <path d="M 2.5 0  C 2.5 0  42.5 0  42.5 0  C 43.8808333333334 0  45 1.16067451479483  45 2.59079132766693  C 45 2.59079132766693  45 16.4083450752239  45 16.4083450752239  C 45 17.8393254852053  43.88 19  42.5 19  C 42.5 19  2.5 19  2.5 19  C 1.11916666666663 19  0 17.8393254852052  0 16.4083450752239  C 0 16.4083450752239  0 2.59079132766693  0 2.59079132766693  C 0 1.16067451479483  1.11916666666663 0  2.5 0  Z " fill-rule="evenodd" />
    </mask>
  </defs>
  <g transform="matrix(1 0 0 1 -689 -8 )">
    <path d="M 2.5 0  C 2.5 0  42.5 0  42.5 0  C 43.8808333333334 0  45 1.16067451479483  45 2.59079132766693  C 45 2.59079132766693  45 16.4083450752239  45 16.4083450752239  C 45 17.8393254852053  43.88 19  42.5 19  C 42.5 19  2.5 19  2.5 19  C 1.11916666666663 19  0 17.8393254852052  0 16.4083450752239  C 0 16.4083450752239  0 2.59079132766693  0 2.59079132766693  C 0 1.16067451479483  1.11916666666663 0  2.5 0  Z " fill-rule="nonzero" fill="#ffffff" stroke="none" fill-opacity="0" transform="matrix(1 0 0 1 689 8 )" />
    <path d="M 2.5 0  C 2.5 0  42.5 0  42.5 0  C 43.8808333333334 0  45 1.16067451479483  45 2.59079132766693  C 45 2.59079132766693  45 16.4083450752239  45 16.4083450752239  C 45 17.8393254852053  43.88 19  42.5 19  C 42.5 19  2.5 19  2.5 19  C 1.11916666666663 19  0 17.8393254852052  0 16.4083450752239  C 0 16.4083450752239  0 2.59079132766693  0 2.59079132766693  C 0 1.16067451479483  1.11916666666663 0  2.5 0  Z " stroke-width="4" stroke="#ababab" fill="none" transform="matrix(1 0 0 1 689 8 )" mask="url(#clip231)" />
  </g>
</svg>