<?xml version="1.0" encoding="utf-8"?>
<svg version="1.1" xmlns:xlink="http://www.w3.org/1999/xlink" width="11px" height="11px" xmlns="http://www.w3.org/2000/svg">
  <defs>
    <mask fill="white" id="clip155">
      <path d="M 5.49960720879613 0  C 8.53739557033814 0  11 2.46242857142858  11 5.5  C 11 8.53757142857142  8.53739557033814 11  5.49960720879613 11  C 2.46181884725412 11  0 8.53835714285711  0 5.5  C -0.000785582407737158 2.46242857142858  2.46181884725412 0  5.49960720879613 0  Z " fill-rule="evenodd" />
    </mask>
  </defs>
  <g transform="matrix(1 0 0 1 -68 -12 )">
    <path d="M 5.49960720879613 0  C 8.53739557033814 0  11 2.46242857142858  11 5.5  C 11 8.53757142857142  8.53739557033814 11  5.49960720879613 11  C 2.46181884725412 11  0 8.53835714285711  0 5.5  C -0.000785582407737158 2.46242857142858  2.46181884725412 0  5.49960720879613 0  Z " fill-rule="nonzero" fill="#ffffff" stroke="none" fill-opacity="0" transform="matrix(1 0 0 1 68 12 )" />
    <path d="M 5.49960720879613 0  C 8.53739557033814 0  11 2.46242857142858  11 5.5  C 11 8.53757142857142  8.53739557033814 11  5.49960720879613 11  C 2.46181884725412 11  0 8.53835714285711  0 5.5  C -0.000785582407737158 2.46242857142858  2.46181884725412 0  5.49960720879613 0  Z " stroke-width="2" stroke="#000000" fill="none" transform="matrix(1 0 0 1 68 12 )" mask="url(#clip155)" />
  </g>
</svg>