<?xml version="1.0" encoding="utf-8"?>
<svg version="1.1" xmlns:xlink="http://www.w3.org/1999/xlink" width="14px" height="22px" xmlns="http://www.w3.org/2000/svg">
  <defs>
    <mask fill="white" id="clip240">
      <path d="M 6.73391754129732 0.0525148562240775  C 10.572232757095 0.577744918211767  14.1911851016247 5.7445914407018  13.9921534233034 11.9420977475288  C 13.7920516821955 18.1396040543558  11.4946268792076 22.5175633607254  7.34064314134117 21.9506483731831  C 3.37285032835596 21.4066600946959  -0.0074780147455228 16.6514522120573  1.24247611892161E-05 10.5519054802836  C 0.00857292705457981 4.35127280404001  2.21932264432196 -0.565464165122556  6.73391754129732 0.0525148562240775  Z " fill-rule="evenodd" />
    </mask>
  </defs>
  <g transform="matrix(1 0 0 1 -302 -752 )">
    <path d="M 6.73391754129732 0.0525148562240775  C 10.572232757095 0.577744918211767  14.1911851016247 5.7445914407018  13.9921534233034 11.9420977475288  C 13.7920516821955 18.1396040543558  11.4946268792076 22.5175633607254  7.34064314134117 21.9506483731831  C 3.37285032835596 21.4066600946959  -0.0074780147455228 16.6514522120573  1.24247611892161E-05 10.5519054802836  C 0.00857292705457981 4.35127280404001  2.21932264432196 -0.565464165122556  6.73391754129732 0.0525148562240775  Z " fill-rule="nonzero" fill="#ffffff" stroke="none" fill-opacity="0" transform="matrix(1 0 0 1 302 752 )" />
    <path d="M 6.73391754129732 0.0525148562240775  C 10.572232757095 0.577744918211767  14.1911851016247 5.7445914407018  13.9921534233034 11.9420977475288  C 13.7920516821955 18.1396040543558  11.4946268792076 22.5175633607254  7.34064314134117 21.9506483731831  C 3.37285032835596 21.4066600946959  -0.0074780147455228 16.6514522120573  1.24247611892161E-05 10.5519054802836  C 0.00857292705457981 4.35127280404001  2.21932264432196 -0.565464165122556  6.73391754129732 0.0525148562240775  Z " stroke-width="2" stroke="#ffffff" fill="none" transform="matrix(1 0 0 1 302 752 )" mask="url(#clip240)" />
  </g>
</svg>