<?xml version="1.0" encoding="utf-8"?>
<svg version="1.1" xmlns:xlink="http://www.w3.org/1999/xlink" width="7px" height="11px" xmlns="http://www.w3.org/2000/svg">
  <defs>
    <mask fill="white" id="clip241">
      <path d="M 0 4.41937713114694  C 0 4.41937713114694  6.64024695478058 11  6.64024695478058 11  C 6.64024695478058 11  7 0.174015679411804  7 0.174015679411804  C 7 0.174015679411804  1.90617835815436 -1.31518587095834  0 4.41937713114694  Z " fill-rule="evenodd" />
    </mask>
  </defs>
  <g transform="matrix(1 0 0 1 -303 -752 )">
    <path d="M 0 4.41937713114694  C 0 4.41937713114694  6.64024695478058 11  6.64024695478058 11  C 6.64024695478058 11  7 0.174015679411804  7 0.174015679411804  C 7 0.174015679411804  1.90617835815436 -1.31518587095834  0 4.41937713114694  Z " fill-rule="nonzero" fill="#ffffff" stroke="none" fill-opacity="0" transform="matrix(1 0 0 1 303 752 )" />
    <path d="M 0 4.41937713114694  C 0 4.41937713114694  6.64024695478058 11  6.64024695478058 11  C 6.64024695478058 11  7 0.174015679411804  7 0.174015679411804  C 7 0.174015679411804  1.90617835815436 -1.31518587095834  0 4.41937713114694  Z " stroke-width="2" stroke="#1d8be0" fill="none" transform="matrix(1 0 0 1 303 752 )" mask="url(#clip241)" />
  </g>
</svg>