<?xml version="1.0" encoding="utf-8"?>
<svg version="1.1" xmlns:xlink="http://www.w3.org/1999/xlink" width="24px" height="19px" xmlns="http://www.w3.org/2000/svg">
  <g transform="matrix(1 0 0 1 -189 -8 )">
    <path d="M 7.51140605558044 13.5738618830362  C 7.51140605558044 13.5738618830362  11.4826864371648 18.1100000000001  11.4826864371648 18.1100000000001  C 11.4826864371648 18.1100000000001  15.4584736623826 13.5783687266696  15.4584736623826 13.5783687266696  C 14.3820891746182 12.6574703442557  12.9969858979696 12.0182496889258  11.4826864371648 12.0182496889258  C 9.97139153878243 12.0182496889258  8.58703940273926 12.655216922439  7.51140605558044 13.5738618830362  Z M 0 4.7291812525923  C 0 4.7291812525923  1.82301824969068 6.81284529240997  1.82301824969068 6.81284529240997  C 4.45276150974883 4.47154002488605  7.87946495230381 3.04587515553726  11.6396748237264 3.04587515553726  C 15.4051426793878 3.04587515553726  18.8378552467873 4.47679800912488  21.4683496474509 6.82411240149327  C 21.4683496474509 6.82411240149327  23.2943724595621 4.74195064288688  23.2943724595621 4.74195064288688  C 20.1778900871025 1.95146329323939  16.1074591455845 0  11.6389236831208 0  C 7.17789962671259 0  3.11272666943364 1.94620530900033  0 4.7291812525923  Z M 5.68613438407465 11.2866387391123  C 7.27479676482949 9.89777975943593  9.33367316466365 9.05499999999984  11.5870949813373 9.05499999999984  C 13.8442725010386 9.05499999999984  15.9061534632949 9.90153546246347  17.4963181252608 11.2926478639567  C 17.4963181252608 11.2926478639567  19.4297540439668 9.08955246785558  19.4297540439668 9.08955246785558  C 17.3265603484049 7.22672376607215  14.589403981752 6.0091248444628  11.5878461219427 6.0091248444628  C 8.59154624637245 6.0091248444628  5.85814558274751 7.22296806304439  3.75570302779101 9.080538780589  C 3.75570302779101 9.080538780589  5.68613438407465 11.2866387391123  5.68613438407465 11.2866387391123  Z " fill-rule="nonzero" fill="#000000" stroke="none" transform="matrix(1 0 0 1 189 8 )" />
  </g>
</svg>