<?xml version="1.0" encoding="utf-8"?>
<svg version="1.1" xmlns:xlink="http://www.w3.org/1999/xlink" width="15px" height="18px" xmlns="http://www.w3.org/2000/svg">
  <defs>
    <mask fill="white" id="clip183">
      <path d="M 3.55134174596478 9.61527476307281  C -0.121109498051606 7.73919366341334  -1.74653402158386 8.5213729580262  2.6372828022391 6.87308723943203  C 7.02109962606206 5.22480152083785  7.74180672611876 0  7.74180672611876 0  C 7.74180672611876 0  8.81097015701734 6.15238961692609  13.5700340867392 7.73919366341332  C 18.329098016461 9.32599770990052  9.79482611997078 7.72105773394715  8.47520419330783 15.399379317269  C 7.15558226664488 23.0777009005909  7.22379298998118 11.4913558627323  3.55134174596478 9.61527476307281  Z " fill-rule="evenodd" />
    </mask>
  </defs>
  <g transform="matrix(1 0 0 1 -547 -39 )">
    <path d="M 3.55134174596478 9.61527476307281  C -0.121109498051606 7.73919366341334  -1.74653402158386 8.5213729580262  2.6372828022391 6.87308723943203  C 7.02109962606206 5.22480152083785  7.74180672611876 0  7.74180672611876 0  C 7.74180672611876 0  8.81097015701734 6.15238961692609  13.5700340867392 7.73919366341332  C 18.329098016461 9.32599770990052  9.79482611997078 7.72105773394715  8.47520419330783 15.399379317269  C 7.15558226664488 23.0777009005909  7.22379298998118 11.4913558627323  3.55134174596478 9.61527476307281  Z " fill-rule="nonzero" fill="#cedfff" stroke="none" transform="matrix(1 0 0 1 547 39 )" />
    <path d="M 3.55134174596478 9.61527476307281  C -0.121109498051606 7.73919366341334  -1.74653402158386 8.5213729580262  2.6372828022391 6.87308723943203  C 7.02109962606206 5.22480152083785  7.74180672611876 0  7.74180672611876 0  C 7.74180672611876 0  8.81097015701734 6.15238961692609  13.5700340867392 7.73919366341332  C 18.329098016461 9.32599770990052  9.79482611997078 7.72105773394715  8.47520419330783 15.399379317269  C 7.15558226664488 23.0777009005909  7.22379298998118 11.4913558627323  3.55134174596478 9.61527476307281  Z " stroke-width="2" stroke="#cedfff" fill="none" transform="matrix(1 0 0 1 547 39 )" mask="url(#clip183)" />
  </g>
</svg>