<?xml version="1.0" encoding="utf-8"?>
<svg version="1.1" xmlns:xlink="http://www.w3.org/1999/xlink" width="11px" height="13px" xmlns="http://www.w3.org/2000/svg">
  <defs>
    <mask fill="white" id="clip252">
      <path d="M 2.60431728037418 6.94436510666369  C -0.0888136319045113 5.58941764579853  -1.28079161582817 6.15432491413003  1.93400738830867 4.9638963395898  C 5.14880639244551 3.77346776504956  5.67732493248709 0  5.67732493248709 0  C 5.67732493248709 0  6.46137811514605 4.44339250111329  9.95135833027541 5.58941764579851  C 13.4413385454047 6.73544279048371  7.18287248797857 5.57631947451739  6.21514974175907 11.121773951361  C 5.24742699553958 16.6672284282046  5.29744819265286 8.29931256752886  2.60431728037418 6.94436510666369  Z " fill-rule="evenodd" />
    </mask>
  </defs>
  <g transform="matrix(1 0 0 1 -649 -164 )">
    <path d="M 2.60431728037418 6.94436510666369  C -0.0888136319045113 5.58941764579853  -1.28079161582817 6.15432491413003  1.93400738830867 4.9638963395898  C 5.14880639244551 3.77346776504956  5.67732493248709 0  5.67732493248709 0  C 5.67732493248709 0  6.46137811514605 4.44339250111329  9.95135833027541 5.58941764579851  C 13.4413385454047 6.73544279048371  7.18287248797857 5.57631947451739  6.21514974175907 11.121773951361  C 5.24742699553958 16.6672284282046  5.29744819265286 8.29931256752886  2.60431728037418 6.94436510666369  Z " fill-rule="nonzero" fill="#cedfff" stroke="none" transform="matrix(1 0 0 1 649 164 )" />
    <path d="M 2.60431728037418 6.94436510666369  C -0.0888136319045113 5.58941764579853  -1.28079161582817 6.15432491413003  1.93400738830867 4.9638963395898  C 5.14880639244551 3.77346776504956  5.67732493248709 0  5.67732493248709 0  C 5.67732493248709 0  6.46137811514605 4.44339250111329  9.95135833027541 5.58941764579851  C 13.4413385454047 6.73544279048371  7.18287248797857 5.57631947451739  6.21514974175907 11.121773951361  C 5.24742699553958 16.6672284282046  5.29744819265286 8.29931256752886  2.60431728037418 6.94436510666369  Z " stroke-width="2" stroke="#cedfff" fill="none" transform="matrix(1 0 0 1 649 164 )" mask="url(#clip252)" />
  </g>
</svg>