<?xml version="1.0" encoding="utf-8"?>
<svg version="1.1" xmlns:xlink="http://www.w3.org/1999/xlink" width="15px" height="7px" xmlns="http://www.w3.org/2000/svg">
  <g transform="matrix(1 0 0 1 -486 -793 )">
    <path d="M 14.9977845572411 0.780019437418601  C 14.9843674207923 0.972233374465637  14.8847981450407 1.14988792380881  14.7207324589912 1.27723003234443  C 14.7207324589912 1.27723003234443  9.66317818286704 5.215739532053  9.66317818286704 5.215739532053  C 9.24364887375596 5.54466161673586  8.63019318394243 5.60235881914167  8.14065265155712 5.35986246064316  C 8.14065265155712 5.35986246064316  4.83983532370013 3.72437792148034  4.83983532370013 3.72437792148034  C 4.76441016817462 3.6859231263285  4.67038933230779 3.70033241725191  4.60851582086467 3.7555680324583  C 4.60851582086467 3.7555680324583  1.40713326112577 6.77428446155604  1.40713326112577 6.77428446155604  C 1.25382818576208 6.91840739014621  1.03868322586366 7  0.815366927225739 7  C 0.60284486618197 7  0.401083415823963 6.92801358409514  0.250401239314925 6.79598845600943  C -0.0724507081662801 6.51734879277804  -0.0858678446150876 6.05628150258509  0.226223492180357 5.76569413562971  C 0.226223492180357 5.76569413562971  3.69110650608681 2.50192970276578  3.69110650608681 2.50192970276578  C 4.11080394973986 2.11050731870263  4.7698241004259 2.02162000531886  5.29981780360799 2.28344882913961  C 5.29981780360799 2.28344882913961  8.63295059043066 3.93568416900089  8.63295059043066 3.93568416900089  C 8.70286093297971 3.97170739630941  8.79163597113724 3.96207118300438  8.8508865837257 3.91413027132796  C 8.8508865837257 3.91413027132796  13.6473279161782 0.179632315609963  13.6473279161782 0.179632315609963  C 13.8114944829529 0.0524102844987126  14.0212927644168 -0.0124315246566193  14.2391951308034 0.00197776626678684  C 14.4571311240985 0.0139554893468692  14.6561351679683 0.102842802730638  14.7987805133714 0.251768828295271  C 14.9412913511409 0.395741660104983  15.0139254732698 0.585494009952603  14.9977845572411 0.780019437418601  Z " fill-rule="nonzero" fill="#ffffff" stroke="none" transform="matrix(1 0 0 1 486 793 )" />
  </g>
</svg>