<?xml version="1.0" encoding="utf-8"?>
<svg version="1.1" xmlns:xlink="http://www.w3.org/1999/xlink" width="16px" height="14px" xmlns="http://www.w3.org/2000/svg">
  <g transform="matrix(1 0 0 1 -78 -369 )">
    <path d="M 8.27598778776553 14  C 12.5419786859489 14  16 10.8660305236777  16 7.00003132904959  C 16 3.9510999809946  13.8545332459437 1.3611284345369  10.8506585251772 0.404472277737224  C 10.0248368714384 0.135139299141314  9.15365587464303 -0.00176023854101003  8.27598778776553 1.70856832255593E-05  C 4.00999688958217 1.70856832255593E-05  0.551724137931152 3.13403213442152  0.551724137931152 7.00003132904959  C 0.551724137931152 10.4222007641944  3.26373009251229 13.2765378959034  6.85124177061029 13.8832434701924  C 7.31464126757772 13.9610355843148  7.7866399304686 14  8.27598778776553 14  Z M 11.7088653418076 6.61120747568561  C 12.4199811623849 6.61120747568561  12.9963264293133 7.13351293553131  12.9963264293133 7.77777018060936  C 12.9963264293133 8.42220971535134  12.4199811623849 8.94451517519705  11.7088653418076 8.94451517519705  C 11.7088653418076 8.94451517519705  8.27598778776553 8.94451517519705  8.27598778776553 8.94451517519705  C 7.5648719671882 8.94451517519705  6.98852670025975 8.42220971535134  6.98852670025975 7.77777018060936  C 6.98852670025975 7.77777018060936  6.98852670025975 4.66676920195399  6.98852670025975 4.66676920195399  C 6.98852670025975 4.022329667212  7.5648719671882 3.5000242073663  8.27598778776553 3.5000242073663  C 8.98690245826275 3.5000242073663  9.56319743767117 4.022329667212  9.56319743767117 4.66676920195399  C 9.56319743767117 4.66676920195399  9.56319743767117 6.61120747568561  9.56319743767117 6.61120747568561  C 9.56319743767117 6.61120747568561  11.7088653418076 6.61120747568561  11.7088653418076 6.61120747568561  Z " fill-rule="nonzero" fill="#ffffff" stroke="none" transform="matrix(1 0 0 1 78 369 )" />
  </g>
</svg>