<?xml version="1.0" encoding="utf-8"?>
<svg version="1.1" xmlns:xlink="http://www.w3.org/1999/xlink" width="46px" height="37px" xmlns="http://www.w3.org/2000/svg">
  <defs>
    <linearGradient gradientUnits="userSpaceOnUse" x1="13.2917335424427" y1="9.09012500414292" x2="36.845191835733" y2="34.2426543293307" id="LinearGradient269">
      <stop id="Stop270" stop-color="#65b9f9" offset="0" />
      <stop id="Stop271" stop-color="#0091ff" offset="1" />
    </linearGradient>
  </defs>
  <g transform="matrix(1 0 0 1 -352 -1251 )">
    <path d="M 46 4.16217218254185  C 46 1.83622606304031  44.1889728964938 0  41.8950347084052 0  C 41.8950347084052 0  4.10505372065261 0  4.10505372065261 0  C 1.81102710350621 0  0 1.83622606304031  0 4.16217218254185  C 0 4.16217218254185  0 28.4003562146739  0 28.4003562146739  C 0 30.7262126746997  1.81102710350621 32.5625283972157  4.10505372065261 32.5625283972157  C 4.10505372065261 32.5625283972157  17.8688597072998 32.5625283972157  17.8688597072998 32.5625283972157  C 17.8688597072998 32.5625283972157  21.49100234337 36.357276048198  21.49100234337 36.357276048198  C 22.3359419905381 37.2142413172673  23.6640580094619 37.2142413172673  24.5093513728611 36.357276048198  C 24.5093513728611 36.357276048198  28.1311402927002 32.5625283972157  28.1311402927002 32.5625283972157  C 28.1311402927002 32.5625283972157  41.8950347084052 32.5625283972157  41.8950347084052 32.5625283972157  C 44.1889728964938 32.5625283972157  46 30.7262126746997  46 28.4003562146739  C 46 28.4003562146739  46 4.16217218254185  46 4.16217218254185  Z " fill-rule="nonzero" fill="url(#LinearGradient269)" stroke="none" transform="matrix(1 0 0 1 352 1251 )" />
  </g>
</svg>