<?xml version="1.0" encoding="utf-8"?>
<svg version="1.1" xmlns:xlink="http://www.w3.org/1999/xlink" width="16px" height="14px" xmlns="http://www.w3.org/2000/svg">
  <g transform="matrix(1 0 0 1 -78 -879 )">
    <path d="M 8.27598778776553 14  C 12.5419786859489 14  16 10.8660305236776  16 7.00003132904953  C 16 3.95109998099474  13.8545332459437 1.36112843453702  10.8506585251772 0.404472277737113  C 10.0248368714384 0.135139299141201  9.15365587464303 -0.00176023854101004  8.27598778776553 1.70856833392463E-05  C 4.00999688958217 1.70856833392463E-05  0.551724137931152 3.13403213442166  0.551724137931152 7.00003132904953  C 0.551724137931152 10.4222007641945  3.26373009251229 13.2765378959034  6.85124177061029 13.8832434701924  C 7.31464126757772 13.9610355843149  7.7866399304686 14  8.27598778776553 14  Z M 11.7088653418076 6.61120747568589  C 12.4199811623849 6.61120747568589  12.9963264293133 7.1335129355316  12.9963264293133 7.77777018060942  C 12.9963264293133 8.42220971535153  12.4199811623849 8.94451517519724  11.7088653418076 8.94451517519724  C 11.7088653418076 8.94451517519724  8.27598778776553 8.94451517519724  8.27598778776553 8.94451517519724  C 7.5648719671882 8.94451517519724  6.98852670025975 8.42220971535153  6.98852670025975 7.77777018060942  C 6.98852670025975 7.77777018060942  6.98852670025975 4.66676920195437  6.98852670025975 4.66676920195437  C 6.98852670025975 4.02232966721226  7.5648719671882 3.50002420736655  8.27598778776553 3.50002420736655  C 8.98690245826275 3.50002420736655  9.56319743767117 4.02232966721226  9.56319743767117 4.66676920195437  C 9.56319743767117 4.66676920195437  9.56319743767117 6.61120747568589  9.56319743767117 6.61120747568589  C 9.56319743767117 6.61120747568589  11.7088653418076 6.61120747568589  11.7088653418076 6.61120747568589  Z " fill-rule="nonzero" fill="#ffffff" stroke="none" transform="matrix(1 0 0 1 78 879 )" />
  </g>
</svg>