<?xml version="1.0" encoding="utf-8"?>
<svg version="1.1" xmlns:xlink="http://www.w3.org/1999/xlink" width="27px" height="32px" xmlns="http://www.w3.org/2000/svg">
  <g transform="matrix(1 0 0 1 -62 -181 )">
    <path d="M 23.8345344827585 15.6781143151621  C 24.7526379310343 15.6781143151621  25.6440517241379 15.7878310591292  26.4827586206895 16.0070351101252  C 26.4827586206895 16.0070351101252  26.4827586206895 4.71410311218659  26.4827586206895 4.71410311218659  C 26.4827586206895 2.12197046895653  24.1081034482759 0.0152805001008005  21.1863103448275 0.0152805001008005  C 21.1863103448275 0.0152805001008005  5.29644827586208 0.0152805001008005  5.29644827586208 0.0152805001008005  C 2.3746551724139 0.0152805001008005  0 2.12197046895653  0 4.71410311218659  C 0 4.71410311218659  0 26.6421714055252  0 26.6421714055252  C 0 29.2344417109184  2.3746551724139 31.3411316797741  5.29644827586208 31.3411316797741  C 5.29644827586208 31.3411316797741  18.2554137931033 31.3411316797741  18.2554137931033 31.3411316797741  C 15.6647586206896 29.7302549349106  14.1227068965516 27.0994392238578  14.1241034482757 24.2927830431762  C 14.1241034482757 19.531232372118  18.4673275862069 15.6781143151621  23.8345344827585 15.6781143151621  Z M 4.56124137931033 10.979337590464  C 4.56124137931033 10.979337590464  11.623396551724 10.979337590464  11.623396551724 10.979337590464  C 12.3545689655173 10.979337590464  12.9473793103448 11.5052529407811  12.9473793103448 12.1541006027201  C 12.9473793103448 12.802810602496  12.3545689655173 13.328725952813  11.623396551724 13.328725952813  C 11.623396551724 13.328725952813  4.56124137931033 13.328725952813  4.56124137931033 13.328725952813  C 3.83001724137944 13.328725952813  3.23700000000008 12.802810602496  3.23700000000008 12.1541006027201  C 3.23700000000008 11.5052529407811  3.83001724137944 10.979337590464  4.56124137931033 10.979337590464  Z M 22.2163448275862 5.8888661244427  C 22.9477241379311 5.8888661244427  23.5405344827586 6.41478147475976  23.5405344827586 7.06367502408642  C 23.5405344827586 7.71238502386234  22.9477241379311 8.2383003741794  22.2163448275862 8.2383003741794  C 22.2163448275862 8.2383003741794  4.56124137931033 8.2383003741794  4.56124137931033 8.2383003741794  C 3.83001724137944 8.2383003741794  3.23700000000008 7.71238502386234  3.23700000000008 7.06367502408642  C 3.23700000000008 6.41478147475976  3.83001724137944 5.8888661244427  4.56124137931033 5.8888661244427  C 4.56124137931033 5.8888661244427  22.2163448275862 5.8888661244427  22.2163448275862 5.8888661244427  Z " fill-rule="nonzero" fill="#ffffff" stroke="none" transform="matrix(1 0 0 1 62 181 )" />
  </g>
</svg>