<?xml version="1.0" encoding="utf-8"?>
<svg version="1.1" xmlns:xlink="http://www.w3.org/1999/xlink" width="16px" height="15px" xmlns="http://www.w3.org/2000/svg">
  <g transform="matrix(1 0 0 1 -78 -198 )">
    <path d="M 8.27598778776553 14.3869731800767  C 12.5419786859489 14.3869731800767  16 11.3130414331858  16 7.52110352581121  C 16 4.53058082427066  13.8545332459437 1.99022559096346  10.8506585251772 1.05189618046262  C 10.0248368714384 0.787722837471961  9.15365587464303 0.653445896297001  8.27598778776553 0.655189172164455  C 4.00999688958217 0.655189172164455  0.551724137931152 3.72916561843653  0.551724137931152 7.52110352581121  C 0.551724137931152 10.8777141595165  3.26373009251229 13.6773705032617  6.85124177061029 14.2724533653995  C 7.31464126757772 14.3487552091365  7.7866399304686 14.3869731800767  8.27598778776553 14.3869731800767  Z M 11.7088653418076 7.13972840527038  C 12.4199811623849 7.13972840527038  12.9963264293133 7.6520280133949  12.9963264293133 8.28394316565527  C 12.9963264293133 8.91603711544059  12.4199811623849 9.42833672356511  11.7088653418076 9.42833672356511  C 11.7088653418076 9.42833672356511  8.27598778776553 9.42833672356511  8.27598778776553 9.42833672356511  C 7.5648719671882 9.42833672356511  6.98852670025975 8.91603711544059  6.98852670025975 8.28394316565527  C 6.98852670025975 8.28394316565527  6.98852670025975 5.23253990689767  6.98852670025975 5.23253990689767  C 6.98852670025975 4.60044595711236  7.5648719671882 4.08814634898783  8.27598778776553 4.08814634898783  C 8.98690245826275 4.08814634898783  9.56319743767117 4.60044595711236  9.56319743767117 5.23253990689767  C 9.56319743767117 5.23253990689767  9.56319743767117 7.13972840527038  9.56319743767117 7.13972840527038  C 9.56319743767117 7.13972840527038  11.7088653418076 7.13972840527038  11.7088653418076 7.13972840527038  Z " fill-rule="nonzero" fill="#ffffff" stroke="none" transform="matrix(1 0 0 1 78 198 )" />
  </g>
</svg>