<?xml version="1.0" encoding="utf-8"?>
<svg version="1.1" xmlns:xlink="http://www.w3.org/1999/xlink" width="27px" height="32px" xmlns="http://www.w3.org/2000/svg">
  <g transform="matrix(1 0 0 1 -62 -351 )">
    <path d="M 23.8345344827585 15.98432748538  C 24.7526379310343 15.98432748538  25.6440517241379 16.0961871345029  26.4827586206895 16.3196725146198  C 26.4827586206895 16.3196725146198  26.4827586206895 4.80617543859637  26.4827586206895 4.80617543859637  C 26.4827586206895 2.16341520467824  24.1081034482759 0.0155789473683399  21.1863103448275 0.0155789473683399  C 21.1863103448275 0.0155789473683399  5.29644827586208 0.0155789473683399  5.29644827586208 0.0155789473683399  C 2.3746551724139 0.0155789473683399  0 2.16341520467824  0 4.80617543859637  C 0 4.80617543859637  0 27.1625263157894  0 27.1625263157894  C 0 29.8054269005847  2.3746551724139 31.9532631578946  5.29644827586208 31.9532631578946  C 5.29644827586208 31.9532631578946  18.2554137931033 31.9532631578946  18.2554137931033 31.9532631578946  C 15.6647586206896 30.3109239766081  14.1227068965516 27.6287251461987  14.1241034482757 24.7672514619882  C 14.1241034482757 19.9127017543859  18.4673275862069 15.98432748538  23.8345344827585 15.98432748538  Z M 4.56124137931033 11.1937777777778  C 4.56124137931033 11.1937777777778  11.623396551724 11.1937777777778  11.623396551724 11.1937777777778  C 12.3545689655173 11.1937777777778  12.9473793103448 11.7299649122807  12.9473793103448 12.3914853801169  C 12.9473793103448 13.052865497076  12.3545689655173 13.589052631579  11.623396551724 13.589052631579  C 11.623396551724 13.589052631579  4.56124137931033 13.589052631579  4.56124137931033 13.589052631579  C 3.83001724137944 13.589052631579  3.23700000000008 13.052865497076  3.23700000000008 12.3914853801169  C 3.23700000000008 11.7299649122807  3.83001724137944 11.1937777777778  4.56124137931033 11.1937777777778  Z M 22.2163448275862 6.00388304093553  C 22.9477241379311 6.00388304093553  23.5405344827586 6.54007017543847  23.5405344827586 7.20163742690045  C 23.5405344827586 7.86301754385943  22.9477241379311 8.39920467836237  22.2163448275862 8.39920467836237  C 22.2163448275862 8.39920467836237  4.56124137931033 8.39920467836237  4.56124137931033 8.39920467836237  C 3.83001724137944 8.39920467836237  3.23700000000008 7.86301754385943  3.23700000000008 7.20163742690045  C 3.23700000000008 6.54007017543847  3.83001724137944 6.00388304093553  4.56124137931033 6.00388304093553  C 4.56124137931033 6.00388304093553  22.2163448275862 6.00388304093553  22.2163448275862 6.00388304093553  Z " fill-rule="nonzero" fill="#ffffff" stroke="none" transform="matrix(1 0 0 1 62 351 )" />
  </g>
</svg>