<?xml version="1.0" encoding="utf-8"?>
<svg version="1.1" xmlns:xlink="http://www.w3.org/1999/xlink" width="14px" height="24px" xmlns="http://www.w3.org/2000/svg">
  <g transform="matrix(1 0 0 1 -652 -319 )">
    <path d="M 2.28663003663132 23.7948568088832  C 2.28663003663132 23.7948568088832  13.5708791208772 12.9920514319092  13.5708791208772 12.9920514319092  C 14.1430402930409 12.4443015780253  14.1430402930409 11.5563997662193  13.5708791208772 11.0079485680908  C 13.5708791208772 11.0079485680908  2.28663003663132 0.205143191116804  2.28663003663132 0.205143191116804  C 2.00018315018497 -0.0683810637056013  1.53644688644727 -0.0683810637056013  1.25073260073304 0.205143191116804  C 1.25073260073304 0.205143191116804  0.214835164834767 1.19684395090371  0.214835164834767 1.19684395090371  C -0.071611721611589 1.47106954997071  -0.071611721611589 1.91502045587367  0.214835164834767 2.18854471069608  C 0.214835164834767 2.18854471069608  9.94523809523798 11.5037989479843  9.94523809523798 11.5037989479843  C 10.2309523809522 11.7780245470458  10.2309523809522 12.2219754529542  9.94523809523798 12.4962010520157  C 9.94523809523798 12.4962010520157  0.214835164834767 21.8114552893039  0.214835164834767 21.8114552893039  C -0.071611721611589 22.0849795441263  -0.071611721611589 22.5289304500293  0.214835164834767 22.8031560490963  C 0.214835164834767 22.8031560490963  1.25073260073304 23.7948568088832  1.25073260073304 23.7948568088832  C 1.53644688644727 24.0683810637056  2.00018315018497 24.0683810637056  2.28663003663132 23.7948568088832  Z " fill-rule="nonzero" fill="#ffffff" stroke="none" transform="matrix(1 0 0 1 652 319 )" />
  </g>
</svg>