<?xml version="1.0" encoding="utf-8"?>
<svg version="1.1" xmlns:xlink="http://www.w3.org/1999/xlink" width="34px" height="36px" xmlns="http://www.w3.org/2000/svg">
  <g transform="matrix(1 0 0 1 -74 -634 )">
    <path d="M 33.9994415472426 11.6089478803135  C 33.9994415472426 11.605927112535  34 11.6030436523829  34 11.6002059614394  C 34 10.8517878597174  33.3830027785762 10.2449796899136  32.6222039721321 10.2449796899136  C 31.8616378543369 10.2449796899136  31.2451990856705 10.8512386292122  31.244454481994 11.598924423594  C 31.2438960292366 11.598924423594  31.2438960292366 32.3865667372275  31.2438960292366 32.3865667372275  C 31.2438960292366 32.8848561130499  30.8319905829535 33.2899593798272  30.3255204697573 33.2899593798272  C 30.3255204697573 33.2899593798272  3.67410722840444 33.2899593798272  3.67410722840444 33.2899593798272  C 3.16763711520826 33.2899593798272  2.75554551800599 32.8848561130499  2.75554551800599 32.3865667372275  C 2.75554551800599 32.3865667372275  2.75554551800599 3.61471480061789  2.75554551800599 3.61471480061789  C 2.75554551800599 3.11660850163053  3.16745096428914 2.7113221580182  3.67410722840444 2.7113221580182  C 3.67410722840444 2.7113221580182  22.207060047359 2.7113221580182  22.207060047359 2.7113221580182  C 22.207060047359 2.7113221580182  22.207060047359 2.71004062017278  22.207060047359 2.71004062017278  C 22.2075719623866 2.71004062017278  22.2079442642248 2.71004062017278  22.208316566063 2.71004062017278  C 22.9692549856965 2.71004062017278  23.5860660562012 2.10346129641284  23.5860660562012 1.35504319469077  C 23.5860660562012 0.606625092968706  22.9692549856965 0  22.208316566063 0  C 22.2001259256218 0  22.1923075870187 0.00109846101035532  22.1843030974965 0.00128153784541541  C 22.1843030974965 0.00128153784541541  3.67410722840444 0.00128153784541541  3.67410722840444 0.00128153784541541  C 1.64808716243036 0.00128153784541541  0 1.62233537387723  0 3.61471480061789  C 0 3.61471480061789  0 32.3865667372275  0 32.3865667372275  C 0 34.3791292408033  1.64808716243036 36  3.67410722840444 36  C 3.67410722840444 36  30.3255204697573 36  30.3255204697573 36  C 32.3513543848123 36  33.9994415472426 34.3791292408033  33.9994415472426 32.3865667372275  C 33.9994415472426 32.3865667372275  33.9994415472426 11.6089478803135  33.9994415472426 11.6089478803135  Z " fill-rule="nonzero" fill="#0091ff" stroke="none" transform="matrix(1 0 0 1 74 634 )" />
  </g>
</svg>